<svg width="32" height="32" viewBox="0 0 32 32" fill="none" xmlns="http://www.w3.org/2000/svg">
<path d="M29.3398 7.99915H20.0065C15.5882 7.99915 12.0064 11.5809 12.0064 15.9991C12.0064 20.4174 15.5882 23.9991 20.0065 23.9991H29.3398V26.6658C29.3398 27.4022 28.7429 27.9991 28.0065 27.9991H4.00643C3.27006 27.9991 2.6731 27.4022 2.6731 26.6658V5.33248C2.6731 4.59611 3.27006 3.99915 4.00643 3.99915H28.0065C28.7429 3.99915 29.3398 4.59611 29.3398 5.33248V7.99915ZM20.0065 10.6658H30.6731V21.3325H20.0065C17.0609 21.3325 14.6731 18.9446 14.6731 15.9991C14.6731 13.0536 17.0609 10.6658 20.0065 10.6658ZM20.0065 14.6658V17.3325H24.0065V14.6658H20.0065Z" fill="#82AEDA"/>
</svg>
