<svg width="32" height="32" viewBox="0 0 32 32" fill="none" xmlns="http://www.w3.org/2000/svg">
<path d="M14.6666 23.9175C9.40484 23.2614 5.33325 18.7728 5.33325 13.3334C5.33325 7.44231 10.1089 2.66669 15.9999 2.66669C21.891 2.66669 26.6666 7.44231 26.6666 13.3334C26.6666 18.7728 22.595 23.2614 17.3333 23.9175V26.6822C22.595 26.8052 26.6666 27.6468 26.6666 28.6667C26.6666 29.7712 21.891 30.6667 15.9999 30.6667C10.1089 30.6667 5.33325 29.7712 5.33325 28.6667C5.33325 27.6468 9.40484 26.8052 14.6666 26.6822V23.9175ZM15.9999 16C17.4727 16 18.6666 14.8062 18.6666 13.3334C18.6666 11.8606 17.4727 10.6667 15.9999 10.6667C14.5271 10.6667 13.3333 11.8606 13.3333 13.3334C13.3333 14.8062 14.5271 16 15.9999 16Z" fill="#82AEDA"/>
</svg>
