<svg width="32" height="32" viewBox="0 0 32 32" fill="none" xmlns="http://www.w3.org/2000/svg">
<path d="M15.2934 5.11917C15.4809 4.93191 15.7351 4.82672 16.0001 4.82672C16.2651 4.82672 16.5193 4.93191 16.7068 5.11917L28.2934 16.7058C28.385 16.8041 28.4954 16.8829 28.6181 16.9375C28.7407 16.9922 28.8731 17.0216 29.0074 17.024C29.1417 17.0263 29.2751 17.0016 29.3996 16.9513C29.5241 16.901 29.6372 16.8262 29.7322 16.7312C29.8271 16.6363 29.902 16.5232 29.9523 16.3986C30.0026 16.2741 30.0273 16.1407 30.0249 16.0065C30.0225 15.8722 29.9931 15.7398 29.9385 15.6171C29.8838 15.4945 29.805 15.3841 29.7068 15.2925L18.1214 3.70584C17.8429 3.42726 17.5121 3.20628 17.1482 3.05551C16.7842 2.90475 16.3941 2.82715 16.0001 2.82715C15.6061 2.82715 15.216 2.90475 14.852 3.05551C14.4881 3.20628 14.1574 3.42726 13.8788 3.70584L2.29211 15.2925C2.11004 15.4812 2.00936 15.7338 2.01176 15.996C2.01416 16.2582 2.11945 16.509 2.30495 16.6943C2.49044 16.8796 2.74131 16.9847 3.0035 16.9869C3.2657 16.989 3.51826 16.8881 3.70677 16.7058L15.2934 5.11917Z" fill="#82AEDA"/>
<path d="M16 7.2418L26.8787 18.1205C26.9187 18.1605 26.9587 18.1978 27 18.2351V26.4991C27 27.8791 25.88 28.9991 24.5 28.9991H20C19.7348 28.9991 19.4804 28.8938 19.2929 28.7062C19.1054 28.5187 19 28.2644 19 27.9991V21.9991C19 21.7339 18.8946 21.4796 18.7071 21.292C18.5196 21.1045 18.2652 20.9991 18 20.9991H14C13.7348 20.9991 13.4804 21.1045 13.2929 21.292C13.1054 21.4796 13 21.7339 13 21.9991V27.9991C13 28.2644 12.8946 28.5187 12.7071 28.7062C12.5196 28.8938 12.2652 28.9991 12 28.9991H7.5C6.83696 28.9991 6.20107 28.7357 5.73223 28.2669C5.26339 27.7981 5 27.1622 5 26.4991V18.2351C5.04148 18.198 5.08194 18.1598 5.12133 18.1205L16 7.23914V7.2418Z" fill="#82AEDA"/>
</svg>
