<svg width="32" height="32" viewBox="0 0 32 32" fill="none" xmlns="http://www.w3.org/2000/svg">
<path d="M16.0065 29.3372C8.64264 29.3372 2.6731 23.3677 2.6731 16.0039C2.6731 8.6401 8.64264 2.67056 16.0065 2.67056C23.3702 2.67056 29.3398 8.6401 29.3398 16.0039C29.3398 23.3677 23.3702 29.3372 16.0065 29.3372ZM11.3398 18.6705V21.3372H14.6731V24.0039H17.3398V21.3372H18.6731C20.5141 21.3372 22.0065 19.8448 22.0065 18.0039C22.0065 16.1629 20.5141 14.6705 18.6731 14.6705H13.3398C12.9716 14.6705 12.6731 14.3721 12.6731 14.0039C12.6731 13.6357 12.9716 13.3372 13.3398 13.3372H20.6731V10.6706H17.3398V8.0039H14.6731V10.6706H13.3398C11.4988 10.6706 10.0064 12.163 10.0064 14.0039C10.0064 15.8448 11.4988 17.3372 13.3398 17.3372H18.6731C19.0413 17.3372 19.3398 17.6357 19.3398 18.0039C19.3398 18.3721 19.0413 18.6705 18.6731 18.6705H11.3398Z" fill="#82AEDA"/>
</svg>
