<svg width="32" height="32" viewBox="0 0 32 32" fill="none" xmlns="http://www.w3.org/2000/svg">
<path d="M6.99988 12C6.99988 9.61305 7.94809 7.32387 9.63592 5.63604C11.3237 3.94821 13.6129 3 15.9999 3C18.3868 3 20.676 3.94821 22.3638 5.63604C24.0517 7.32387 24.9999 9.61305 24.9999 12V13C24.9999 15.8307 26.0665 18.4093 27.8239 20.36C27.9334 20.4813 28.0114 20.6276 28.0513 20.7861C28.0911 20.9446 28.0915 21.1104 28.0524 21.269C28.0134 21.4277 27.936 21.5744 27.8271 21.6962C27.7182 21.8181 27.5812 21.9114 27.4279 21.968C25.3692 22.728 23.2145 23.288 20.9865 23.6253C21.0367 24.3109 20.945 24.9994 20.7171 25.6478C20.4893 26.2963 20.1301 26.8909 19.6622 27.3943C19.1942 27.8978 18.6275 28.2993 17.9973 28.5739C17.3672 28.8485 16.6872 28.9902 15.9999 28.9902C15.3125 28.9902 14.6326 28.8485 14.0024 28.5739C13.3723 28.2993 12.8056 27.8978 12.3376 27.3943C11.8696 26.8909 11.5105 26.2963 11.2826 25.6478C11.0548 24.9994 10.9631 24.3109 11.0132 23.6253C8.81542 23.2923 6.6572 22.7365 4.57188 21.9667C4.41873 21.9101 4.28174 21.8169 4.1729 21.6953C4.06405 21.5736 3.98665 21.4271 3.94746 21.2686C3.90826 21.1101 3.90847 20.9445 3.94805 20.7861C3.98764 20.6277 4.0654 20.4814 4.17455 20.36C5.99696 18.3422 7.00399 15.7189 6.99988 13V12ZM13.0025 23.8667C12.9855 24.2709 13.0504 24.6744 13.1933 25.053C13.3363 25.4315 13.5543 25.7772 13.8343 26.0693C14.1143 26.3613 14.4505 26.5937 14.8227 26.7525C15.1948 26.9113 15.5953 26.9931 15.9999 26.9931C16.4045 26.9931 16.8049 26.9113 17.1771 26.7525C17.5492 26.5937 17.8854 26.3613 18.1655 26.0693C18.4455 25.7772 18.6635 25.4315 18.8064 25.053C18.9494 24.6744 19.0143 24.2709 18.9972 23.8667C17.003 24.0463 14.9967 24.0463 13.0025 23.8667Z" fill="#82AEDA"/>
</svg>
