<svg width="32" height="32" viewBox="0 0 32 32" fill="none" xmlns="http://www.w3.org/2000/svg">
<path d="M7.1122 6.05907C8.46595 4.84768 10.0687 3.90879 11.8341 3.32861C12.8115 4.54959 14.3145 5.33156 16.0001 5.33156C17.6857 5.33156 19.1886 4.54959 20.1661 3.32861C21.9315 3.90879 23.5342 4.84768 24.8879 6.05907C24.3207 7.51519 24.3955 9.20627 25.2377 10.6649C26.0803 12.1244 27.5086 13.0349 29.0542 13.2711C29.2373 14.1515 29.3334 15.0636 29.3334 15.9983C29.3334 16.9328 29.2373 17.8451 29.0542 18.7253C27.5086 18.9616 26.0803 19.8721 25.2377 21.3316C24.3955 22.7901 24.3207 24.4813 24.8879 25.9373C23.5342 27.1488 21.9315 28.0877 20.1661 28.6679C19.1886 27.4469 17.6857 26.6649 16.0001 26.6649C14.3145 26.6649 12.8115 27.4469 11.8341 28.6679C10.0687 28.0877 8.46595 27.1488 7.1122 25.9373C7.67944 24.4813 7.60462 22.7901 6.76248 21.3316C5.91986 19.8721 4.49158 18.9616 2.94588 18.7253C2.76291 17.8451 2.66675 16.9328 2.66675 15.9983C2.66675 15.0636 2.76291 14.1515 2.94588 13.2711C4.49158 13.0349 5.91986 12.1244 6.76248 10.6649C7.60462 9.20627 7.67944 7.51519 7.1122 6.05907ZM18.0001 19.4624C19.9133 18.3577 20.5687 15.9115 19.4642 13.9983C18.3595 12.0851 15.9133 11.4295 14.0001 12.5341C12.0869 13.6387 11.4314 16.0851 12.536 17.9983C13.6406 19.9115 16.0869 20.5669 18.0001 19.4624Z" fill="#82AEDA"/>
</svg>
