<svg width="28" height="26" viewBox="0 0 28 26" fill="none" xmlns="http://www.w3.org/2000/svg">
<path d="M4.464 0.69467C7.62151 0.231203 10.8087 -0.000970753 14 3.05054e-06C17.24 3.05054e-06 20.4227 0.237336 23.536 0.693336C26.1733 1.08267 28 3.392 28 5.98667V14.0133C28 16.608 26.1733 18.9173 23.536 19.3067C20.9493 19.6853 18.3147 19.9133 15.64 19.98C15.507 19.9826 15.3801 20.036 15.2853 20.1293L9.70667 25.7067C9.56682 25.8463 9.38871 25.9414 9.19485 25.98C9.00098 26.0185 8.80005 25.9987 8.61744 25.9231C8.43482 25.8474 8.2787 25.7194 8.16881 25.5551C8.05892 25.3908 8.00017 25.1977 8 25V19.7267C6.81771 19.6185 5.63861 19.478 4.464 19.3053C1.82667 18.9187 0 16.6067 0 14.012V5.988C0 3.39334 1.82667 1.08134 4.464 0.69467Z" fill="#82AEDA"/>
</svg>
