<svg width="32" height="32" viewBox="0 0 32 32" fill="none" xmlns="http://www.w3.org/2000/svg">
<path d="M25.3334 26.6658H6.66675V27.9991C6.66675 28.7355 6.06979 29.3325 5.33341 29.3325H4.00008C3.26371 29.3325 2.66675 28.7355 2.66675 27.9991V15.9991L6.01787 7.06279C6.40817 6.02199 7.40316 5.33246 8.51475 5.33246H23.4854C24.597 5.33246 25.5919 6.02199 25.9823 7.06279L29.3334 15.9991V27.9991C29.3334 28.7355 28.7365 29.3325 28.0001 29.3325H26.6667C25.9303 29.3325 25.3334 28.7355 25.3334 27.9991V26.6658ZM5.51475 15.9991H26.4854L23.4854 7.99913H8.51475L5.51475 15.9991ZM8.66675 22.6658C9.77132 22.6658 10.6667 21.7703 10.6667 20.6658C10.6667 19.5613 9.77132 18.6658 8.66675 18.6658C7.56217 18.6658 6.66675 19.5613 6.66675 20.6658C6.66675 21.7703 7.56217 22.6658 8.66675 22.6658ZM23.3334 22.6658C24.4379 22.6658 25.3334 21.7703 25.3334 20.6658C25.3334 19.5613 24.4379 18.6658 23.3334 18.6658C22.2289 18.6658 21.3334 19.5613 21.3334 20.6658C21.3334 21.7703 22.2289 22.6658 23.3334 22.6658Z" fill="#82AEDA"/>
</svg>
