<svg width="65" height="48" viewBox="0 0 65 48" fill="none" xmlns="http://www.w3.org/2000/svg">
<path d="M58.218 12.8604H57.9227C57.8902 12.8605 57.8589 12.8483 57.8347 12.8262C57.8106 12.8041 57.7955 12.7737 57.7923 12.7409C57.5351 9.57467 55.0717 7.24168 51.9508 6.91021C51.8651 6.90055 51.8228 6.85285 51.824 6.76712L51.8367 6.17119C51.8379 6.09753 51.8753 6.05466 51.949 6.04259C55.3434 5.50402 57.3117 3.52605 57.8539 0.108681C57.866 0.0362276 57.9083 0 57.9807 0H58.6002C58.6775 0 58.7191 0.0380388 58.7252 0.114115C58.9661 3.31292 61.4295 5.68032 64.5866 6.0118C64.6687 6.02025 64.7098 6.06553 64.7098 6.14764V6.78161C64.7098 6.85165 64.6754 6.89029 64.6065 6.89753C61.444 7.21814 59.015 9.57287 58.7233 12.7554C58.7173 12.8182 58.6853 12.8622 58.6273 12.8876C58.5223 12.9347 58.4015 12.9286 58.2651 12.8695C58.2507 12.8635 58.2347 12.8604 58.218 12.8604Z" fill="#ED4545"/>
<path d="M2.89812 8.03868V44.7651C2.89812 44.7925 2.909 44.8188 2.92836 44.8382C2.94773 44.8575 2.97399 44.8684 3.00137 44.8684L56.6945 44.8376C56.7219 44.8376 56.7482 44.8267 56.7675 44.8074C56.7869 44.788 56.7978 44.7617 56.7978 44.7343L56.8014 16.4052C56.8014 16.3778 56.8123 16.3516 56.8316 16.3322C56.851 16.3128 56.8773 16.3019 56.9047 16.3019H59.6253C59.6526 16.3019 59.6789 16.3128 59.6983 16.3322C59.7176 16.3516 59.7285 16.3778 59.7285 16.4052V47.6596C59.7285 47.687 59.7176 47.7133 59.6983 47.7326C59.6789 47.752 59.6526 47.7629 59.6253 47.7629L0.103246 47.7575C0.0896872 47.7575 0.0762611 47.7548 0.0637347 47.7496C0.0512084 47.7444 0.0398267 47.7368 0.0302395 47.7272C0.0206522 47.7176 0.0130476 47.7062 0.00785905 47.6937C0.00267047 47.6812 0 47.6678 0 47.6542V5.0844C0 5.05702 0.0108771 5.03076 0.0302395 5.01139C0.0496018 4.99203 0.0758631 4.98116 0.103246 4.98116H48.3045C48.3319 4.98116 48.3581 4.99203 48.3775 5.01139C48.3968 5.03076 48.4077 5.05702 48.4077 5.0844V7.79596C48.4077 7.80951 48.405 7.82294 48.3999 7.83547C48.3947 7.848 48.3871 7.85938 48.3775 7.86896C48.3679 7.87855 48.3565 7.88615 48.344 7.89134C48.3315 7.89653 48.318 7.8992 48.3045 7.8992L3.00137 7.93543C2.97399 7.93543 2.94773 7.94631 2.92836 7.96567C2.909 7.98503 2.89812 8.01129 2.89812 8.03868Z" fill="#ED4545"/>
<path d="M28.8798 34.0022C21.7722 39.5847 11.3353 34.7159 11.3245 25.6756C11.3196 22.5794 11.319 19.485 11.3226 16.3925C11.3226 16.3685 11.3322 16.3455 11.3492 16.3285C11.3662 16.3115 11.3892 16.3019 11.4132 16.3019H14.17C14.196 16.3019 14.2209 16.3122 14.2392 16.3306C14.2576 16.3489 14.2679 16.3738 14.2679 16.3998C14.2667 19.1204 14.2642 21.8482 14.2606 24.5833C14.2594 25.9092 14.3439 26.9018 14.5142 27.5612C15.188 30.1876 17.0664 32.1891 19.6421 33.0622C22.2552 33.9473 24.7554 33.486 27.1428 31.6783C27.1947 31.6397 27.237 31.6481 27.2696 31.7037C27.726 32.4862 28.2664 33.2046 28.8907 33.8591C28.9402 33.9099 28.9366 33.9576 28.8798 34.0022Z" fill="#ED4545"/>
<path d="M45.3701 19.2453H40.4831C40.4227 19.2453 40.3926 19.2152 40.3926 19.1548V16.4378C40.3926 16.3472 40.4378 16.3019 40.5284 16.3019H48.3153C48.3379 16.3019 48.3595 16.3109 48.3755 16.3269C48.3915 16.3428 48.4004 16.3645 48.4004 16.3871C48.4125 19.348 48.4179 22.3228 48.4167 25.3115C48.4155 28.7494 47.1699 31.5678 44.68 33.7668C38.6374 39.1066 28.8598 35.9277 27.1155 27.9995C26.9465 27.2327 26.8601 26.0318 26.8565 24.3968C26.8493 21.7269 26.8487 19.0588 26.8547 16.3925C26.8552 16.3683 26.8651 16.3453 26.8824 16.3284C26.8997 16.3114 26.9229 16.3019 26.9471 16.3019H29.6586C29.719 16.3019 29.7492 16.3321 29.7492 16.3925C29.7546 19.5804 29.6297 22.8336 29.8017 26.0088C30.1223 31.8812 36.4312 35.3843 41.5735 32.3902C43.4754 31.2828 44.6933 29.6363 45.227 27.4507C45.3912 26.7732 45.4721 25.7963 45.4697 24.5199C45.4661 22.7919 45.4643 21.0645 45.4643 19.3377C45.4643 19.2761 45.4329 19.2453 45.3701 19.2453Z" fill="#ED4545"/>
<path d="M22.7994 39.175C23.0693 39.1863 23.296 39.0051 23.3059 38.7702C23.3157 38.5353 23.1049 38.3357 22.8351 38.3244C22.5652 38.3131 22.3385 38.4944 22.3286 38.7292C22.3188 38.9641 22.5296 39.1637 22.7994 39.175Z" fill="#ED4545"/>
<path d="M35.62 38.3573L34.852 38.356C34.79 38.3559 34.7397 38.4061 34.7396 38.4681L34.7323 42.6342C34.7322 42.6962 34.7824 42.7465 34.8444 42.7467L35.6124 42.748C35.6744 42.7481 35.7248 42.6979 35.7249 42.6359L35.7322 38.4698C35.7323 38.4078 35.6821 38.3574 35.62 38.3573Z" fill="#ED4545"/>
<path d="M19.2217 42.5734C18.5986 43.0118 17.4937 42.981 17.0716 42.2637C16.6931 41.6189 16.8869 39.3565 16.8941 38.5342C16.8941 38.475 16.9243 38.4454 16.9847 38.4454H17.6585C17.7189 38.4454 17.7491 38.4762 17.7491 38.5378C17.7503 39.4592 17.7521 40.3787 17.7545 41.2965C17.7563 42.2909 18.7924 42.5173 18.8739 41.4703C18.9476 40.52 18.9494 39.5461 18.8793 38.5487C18.8786 38.5366 18.8803 38.5246 18.8843 38.5132C18.8883 38.5018 18.8945 38.4913 18.9026 38.4824C18.9107 38.4734 18.9205 38.4662 18.9314 38.4611C18.9424 38.456 18.9542 38.4531 18.9663 38.4527L19.7071 38.4291C19.7554 38.4279 19.7796 38.4509 19.7796 38.498C19.7868 39.5087 19.8043 40.517 19.8321 41.5229C19.8502 42.1695 20.4353 42.405 20.8319 41.8453C20.8706 41.7909 20.8905 41.7306 20.8917 41.6641L20.9334 38.5523C20.9346 38.481 20.9708 38.4454 21.0421 38.4454H21.6869C21.7485 38.4454 21.7793 38.4756 21.7793 38.536C21.7853 39.5479 21.7823 40.5586 21.7702 41.5681C21.7539 42.9393 20.3284 43.1186 19.3829 42.5662C19.3285 42.5336 19.2748 42.536 19.2217 42.5734Z" fill="#ED4545"/>
<path d="M25.6812 42.0934C25.7232 42.057 25.7541 42.0095 25.7706 41.9565C25.7871 41.9034 25.7885 41.8467 25.7746 41.7929C25.7606 41.7391 25.732 41.6902 25.6918 41.6518C25.6516 41.6134 25.6015 41.5869 25.5472 41.5754C21.1384 40.6335 26.0833 38.3023 26.4474 40.4161C26.4498 40.4299 26.4491 40.444 26.4455 40.4575C26.4418 40.4709 26.4353 40.4834 26.4263 40.4941C26.4174 40.5048 26.4062 40.5134 26.3936 40.5194C26.3809 40.5253 26.3672 40.5284 26.3532 40.5284H25.8641C25.8334 40.5284 25.8032 40.521 25.776 40.5068C25.7489 40.4926 25.7257 40.472 25.7084 40.4469C25.4065 40.0098 25.0376 39.9482 24.6016 40.2622C24.5473 40.3008 24.5328 40.3509 24.5582 40.4125C24.7139 40.7947 25.8587 41.0139 26.2228 41.1697C26.277 41.1932 26.3231 41.233 26.355 41.2838C27.3168 42.8542 24.4803 43.4429 23.7177 42.0789C23.701 42.0487 23.6916 42.0151 23.6901 41.9806C23.6887 41.9462 23.6953 41.9119 23.7093 41.8806C23.7234 41.8493 23.7446 41.8217 23.7713 41.8002C23.7979 41.7786 23.8292 41.7637 23.8626 41.7565C24.2249 41.678 24.4791 41.7934 24.6252 42.1025C24.6463 42.146 24.6805 42.1821 24.723 42.2057C25.0647 42.3917 25.3841 42.3543 25.6812 42.0934Z" fill="#ED4545"/>
<path d="M27.784 41.6931C28.0068 42.3923 28.9541 42.3959 29.2077 41.6841C29.2318 41.6176 29.2789 41.585 29.349 41.5863L29.8598 41.5935C29.9431 41.5947 29.9745 41.6358 29.954 41.7167C29.3689 43.9337 25.9473 42.5861 27.1047 40.3872C27.6934 39.2678 29.7294 39.2641 29.9757 40.6099C29.9818 40.6455 29.9754 40.6821 29.9575 40.7132C29.9396 40.7443 29.9114 40.768 29.8779 40.7802L27.8655 41.5283C27.8332 41.5398 27.8066 41.5635 27.7914 41.5942C27.7762 41.625 27.7735 41.6604 27.784 41.6931ZM27.8347 40.9958L29.0737 40.5665C29.0762 40.5657 29.0785 40.5643 29.0805 40.5626C29.0825 40.5609 29.0841 40.5588 29.0853 40.5564C29.0865 40.5541 29.0872 40.5515 29.0874 40.5489C29.0875 40.5463 29.0872 40.5436 29.0863 40.5411V40.5393C29.0395 40.4053 28.9309 40.2989 28.7842 40.2436C28.6375 40.1882 28.4648 40.1884 28.3038 40.2441L28.2423 40.264C28.1624 40.2916 28.0878 40.332 28.0228 40.383C27.9578 40.434 27.9037 40.4945 27.8635 40.5611C27.8233 40.6277 27.7978 40.6991 27.7885 40.7712C27.7792 40.8433 27.7863 40.9147 27.8094 40.9813V40.9831C27.8102 40.9856 27.8115 40.9879 27.8132 40.9899C27.8149 40.9919 27.817 40.9935 27.8194 40.9947C27.8217 40.9959 27.8243 40.9966 27.8269 40.9968C27.8296 40.997 27.8322 40.9966 27.8347 40.9958Z" fill="#ED4545"/>
<path d="M31.5497 39.7985C31.8021 39.6403 32.0817 39.5672 32.3884 39.5793C32.4524 39.5817 32.4753 39.6137 32.4572 39.6753C32.3377 40.0847 31.7327 40.3383 31.4537 40.5321C31.4296 40.5489 31.4098 40.5711 31.396 40.5969C31.3821 40.6228 31.3746 40.6514 31.3741 40.6806L31.3197 42.6205C31.3173 42.7051 31.2738 42.7473 31.1893 42.7473H30.6079C30.5451 42.7473 30.5137 42.7159 30.5137 42.6531L30.5173 39.7822C30.5173 39.7327 30.5396 39.6989 30.5843 39.6808C30.8717 39.5648 31.1368 39.6017 31.3795 39.7912C31.4338 39.8335 31.4906 39.8359 31.5497 39.7985Z" fill="#ED4545"/>
<path d="M37.2553 39.8492C38.045 39.3366 39.2097 39.5123 39.2097 40.6878C39.2097 41.3375 39.2157 41.9878 39.2278 42.6386C39.229 42.7111 39.1934 42.7473 39.1209 42.7473H38.4924C38.432 42.7473 38.4019 42.7165 38.4019 42.6549C38.3982 42.0318 38.5196 41.0248 38.2805 40.4632C38.2575 40.4113 38.2201 40.3727 38.1682 40.3473C36.8133 39.6934 37.0578 42.0355 37.1212 42.6205C37.1309 42.7051 37.0929 42.7473 37.0071 42.7473H36.3623C36.3019 42.7473 36.2717 42.7171 36.2717 42.6568V39.8075C36.2717 39.7544 36.2953 39.7158 36.3424 39.6916C36.6394 39.5431 36.8936 39.5884 37.1049 39.8275C37.1496 39.8782 37.1997 39.8854 37.2553 39.8492Z" fill="#ED4545"/>
<path d="M40.9015 42.7654C38.8764 42.1496 39.6136 38.8783 42.1658 39.7478C42.4592 39.848 42.6718 40.1221 42.8034 40.5701C42.8191 40.6269 42.7992 40.6643 42.7436 40.6824C42.3306 40.8189 42.0299 40.7168 41.8416 40.3763C41.8102 40.3205 41.759 40.279 41.6985 40.2604C40.637 39.9361 40.3037 41.2059 40.7819 41.8833C41.1641 42.4249 41.8542 42.2872 42.0589 41.6623C42.0683 41.6345 42.0864 41.6105 42.1106 41.5939C42.1347 41.5772 42.1636 41.5688 42.193 41.57L42.6059 41.5808C42.6506 41.582 42.6941 41.5954 42.7318 41.6194C42.7695 41.6435 42.7999 41.6773 42.8198 41.7173C42.8398 41.7573 42.8484 41.802 42.8449 41.8466C42.8413 41.8911 42.8257 41.9339 42.7998 41.9703C42.2564 42.7202 41.6236 42.9852 40.9015 42.7654Z" fill="#ED4545"/>
<path d="M23.1543 39.6336H22.5385C22.4965 39.6336 22.4624 39.6677 22.4624 39.7097V42.673C22.4624 42.7151 22.4965 42.7491 22.5385 42.7491H23.1543C23.1963 42.7491 23.2304 42.7151 23.2304 42.673V39.7097C23.2304 39.6677 23.1963 39.6336 23.1543 39.6336Z" fill="#ED4545"/>
</svg>
