<svg width="24" height="24" viewBox="0 0 24 24" fill="none" xmlns="http://www.w3.org/2000/svg">
<g id="Frame">
<path id="Vector" d="M11.4881 3.33939C11.5297 3.23901 11.6005 3.15314 11.6915 3.09271C11.7825 3.03227 11.8897 3 11.9993 3C12.1089 3 12.216 3.03227 12.307 3.09271C12.398 3.15314 12.4689 3.23901 12.5104 3.33939L14.5993 8.31218C14.6384 8.40523 14.7027 8.4858 14.7851 8.54502C14.8674 8.60424 14.9647 8.63983 15.0662 8.64785L20.4904 9.0779C20.9809 9.11682 21.1795 9.72297 20.8059 10.0392L16.6734 13.5438C16.5962 13.6091 16.5387 13.6943 16.5071 13.7899C16.4756 13.8855 16.4712 13.9878 16.4945 14.0857L17.7577 19.3251C17.7831 19.4302 17.7764 19.5404 17.7385 19.6418C17.7007 19.7432 17.6333 19.8312 17.545 19.8947C17.4566 19.9582 17.3512 19.9943 17.2421 19.9986C17.133 20.0029 17.0251 19.975 16.9319 19.9186L12.2873 17.1116C12.2005 17.0593 12.1009 17.0316 11.9993 17.0316C11.8977 17.0316 11.798 17.0593 11.7113 17.1116L7.06659 19.9196C6.97346 19.976 6.86553 20.0038 6.75642 19.9996C6.64731 19.9953 6.54192 19.9592 6.45357 19.8956C6.36521 19.8321 6.29785 19.7441 6.26 19.6428C6.22214 19.5414 6.21549 19.4312 6.24088 19.3261L7.50403 14.0857C7.52745 13.9878 7.52315 13.8855 7.49158 13.7898C7.46002 13.6942 7.40242 13.6091 7.32512 13.5438L3.1926 10.0392C3.10985 9.96875 3.04998 9.87567 3.02053 9.77165C2.99108 9.66763 2.99336 9.55732 3.02708 9.45457C3.06081 9.35183 3.12447 9.26126 3.21007 9.19423C3.29566 9.12721 3.39937 9.08674 3.50815 9.0779L8.93232 8.64785C9.03381 8.63983 9.1311 8.60424 9.21348 8.54502C9.29587 8.4858 9.36014 8.40523 9.39924 8.31218L11.4881 3.33939Z" stroke="#B0B0B0" stroke-width="1.5" stroke-linecap="round" stroke-linejoin="round"/>
</g>
</svg>
