<svg width="24" height="24" viewBox="0 0 24 24" fill="none" xmlns="http://www.w3.org/2000/svg">
<g id="Frame">
<path id="Vector" d="M6.72 13.8759C6.48 13.9067 6.24 13.9395 6 13.9744M6.72 13.8759C10.2263 13.4247 13.7737 13.4247 17.28 13.8759M6.72 13.8759L6.34 18.1538M17.28 13.8759C17.52 13.9067 17.76 13.9395 18 13.9744M17.28 13.8759L17.66 18.1538L17.889 20.7415C17.9032 20.9012 17.8848 21.0621 17.8349 21.2141C17.7851 21.366 17.7049 21.5056 17.5995 21.624C17.4942 21.7424 17.3659 21.837 17.2229 21.9018C17.0799 21.9665 16.9253 21.9999 16.769 22H7.231C6.569 22 6.051 21.4174 6.111 20.7415L6.34 18.1538M6.34 18.1538H5.25C4.65326 18.1538 4.08097 17.9107 3.65901 17.4779C3.23705 17.0452 3 16.4582 3 15.8462V9.39077C3 8.28205 3.768 7.3241 4.837 7.16C5.47295 7.06243 6.11074 6.97797 6.75 6.90667M17.658 18.1538H18.749C19.0446 18.154 19.3372 18.0944 19.6103 17.9785C19.8834 17.8626 20.1316 17.6926 20.3406 17.4783C20.5497 17.264 20.7155 17.0096 20.8286 16.7295C20.9418 16.4495 21 16.1493 21 15.8462V9.39077C21 8.28205 20.232 7.3241 19.163 7.16C18.5271 7.06244 17.8893 6.97798 17.25 6.90667M17.25 6.90667C13.7603 6.51723 10.2397 6.51723 6.75 6.90667M17.25 6.90667V3.15385C17.25 2.51692 16.746 2 16.125 2H7.875C7.254 2 6.75 2.51692 6.75 3.15385V6.90667M18 10.4615H18.008V10.4697H18V10.4615ZM15 10.4615H15.008V10.4697H15V10.4615Z" stroke="#B0B0B0" stroke-width="1.5" stroke-linecap="round" stroke-linejoin="round"/>
</g>
</svg>
