<svg width="24" height="24" viewBox="0 0 24 24" fill="none" xmlns="http://www.w3.org/2000/svg">
<g id="star">
<path id="primary" d="M21.9674 9.7959C21.9096 9.61379 21.8008 9.45207 21.6538 9.32993C21.5068 9.20779 21.3279 9.13036 21.1382 9.10683L15.4438 8.32787L12.8564 3.52432C12.7708 3.36578 12.6438 3.23335 12.4891 3.14104C12.3343 3.04873 12.1574 3 11.9772 3C11.797 3 11.6201 3.04873 11.4654 3.14104C11.3106 3.23335 11.1837 3.36578 11.0981 3.52432L8.55059 8.32787L2.85618 9.10683C2.6683 9.13215 2.4915 9.21039 2.34644 9.3324C2.20138 9.45442 2.09405 9.61518 2.03698 9.7959C1.98767 9.97201 1.98767 10.1583 2.037 10.3344C2.08633 10.5105 2.18308 10.6697 2.31671 10.7946L6.4027 14.5196L5.40368 19.7525C5.35487 19.9422 5.36292 20.142 5.42683 20.3271C5.49074 20.5123 5.60769 20.6745 5.76313 20.7937C5.91857 20.9129 6.10564 20.9838 6.30106 20.9975C6.49648 21.0113 6.69164 20.9673 6.86224 20.871L11.9772 18.3544L17.0922 20.871C17.2292 20.9374 17.3795 20.9715 17.5318 20.9709C17.6796 20.9733 17.8261 20.9429 17.9607 20.8819C18.0953 20.8209 18.2147 20.7308 18.3103 20.618C18.4058 20.5053 18.4752 20.3728 18.5133 20.23C18.5514 20.0873 18.5574 19.9378 18.5308 19.7925L17.5318 14.5595L21.6178 10.8345C21.771 10.7143 21.8857 10.552 21.9478 10.3674C22.0099 10.1829 22.0168 9.98425 21.9674 9.7959Z" fill="#B0B0B0"/>
</g>
</svg>
