<svg width="32" height="32" viewBox="0 0 32 32" fill="none" xmlns="http://www.w3.org/2000/svg">
<g id="Frame">
<path id="Vector" d="M24.5 16.9854L14.2427 27.2428C13.1175 28.368 11.5913 29.0001 10 29.0001C8.40873 29.0001 6.8826 28.368 5.75737 27.2428C4.63214 26.1175 4 24.5914 4 23.0001C4 21.4088 4.63214 19.8827 5.75737 18.7574L20.344 4.17076C20.7156 3.79938 21.1567 3.50482 21.642 3.3039C22.1274 3.10298 22.6476 2.99963 23.173 2.99976C23.6983 2.99988 24.2185 3.10347 24.7038 3.30462C25.1891 3.50577 25.63 3.80054 26.0014 4.17209C26.3727 4.54365 26.6673 4.98471 26.8682 5.4701C27.0692 5.95549 27.1725 6.47571 27.1724 7.00104C27.1723 7.52637 27.0687 8.04653 26.8675 8.53183C26.6664 9.01713 26.3716 9.45805 26 9.82943L11.4027 24.4268C11.024 24.7898 10.5179 24.9882 9.9933 24.9815C9.46875 24.9749 8.9678 24.7624 8.59844 24.3899C8.22907 24.0174 8.02085 23.5147 8.01865 22.9901C8.01646 22.4655 8.22047 21.961 8.5867 21.5854L19 11.1721M11.4147 24.4134L11.4014 24.4268" stroke="#A5A5A5" stroke-width="2" stroke-linecap="round" stroke-linejoin="round"/>
</g>
</svg>
