<svg width="24" height="24" viewBox="0 0 24 24" fill="none" xmlns="http://www.w3.org/2000/svg">
<g id="phone">
<path id="primary" d="M20.9999 15.0327V18.9734C21.003 19.2631 20.943 19.55 20.8241 19.8144C20.7052 20.0788 20.5301 20.3144 20.3111 20.505C20.092 20.6956 19.8341 20.8367 19.555 20.9184C19.276 21.0002 18.9825 21.0208 18.6947 20.9788C14.7053 20.4683 10.9999 18.6502 8.16217 15.8108C5.32447 12.9715 3.51585 9.27233 3.02128 5.29626C2.97923 5.01043 2.99966 4.71893 3.08118 4.4417C3.1627 4.16447 3.30339 3.90805 3.49362 3.69C3.68385 3.47195 3.91912 3.29741 4.18334 3.17833C4.44756 3.05924 4.73449 2.99842 5.0245 3.00003H8.9202C9.16905 2.99853 9.40965 3.0889 9.59555 3.2537C9.78144 3.41851 9.89947 3.64606 9.92684 3.89245C10.0267 5.20659 10.3679 6.4913 10.9335 7.68273C11.0305 7.90837 11.041 8.1616 10.9631 8.39446C10.8851 8.62731 10.7242 8.82361 10.5107 8.94616L9.64498 9.43749C9.5202 9.50585 9.41139 9.59981 9.32576 9.71316C9.24013 9.8265 9.17962 9.95666 9.14822 10.095C9.11682 10.2334 9.11526 10.3768 9.14362 10.5158C9.17199 10.6548 9.22965 10.7863 9.31279 10.9015C10.3087 12.3546 11.5685 13.6095 13.0273 14.6015C13.1429 14.6843 13.2749 14.7417 13.4144 14.77C13.554 14.7983 13.698 14.7967 13.8369 14.7654C13.9758 14.7341 14.1065 14.6739 14.2202 14.5886C14.334 14.5033 14.4284 14.3949 14.497 14.2706L14.9902 13.4083C15.1206 13.1928 15.3275 13.034 15.5699 12.9635C15.8123 12.8929 16.0725 12.9156 16.2989 13.0272C17.495 13.5906 18.7847 13.9304 20.104 14.0299C20.3513 14.0572 20.5798 14.1748 20.7452 14.3599C20.9107 14.5451 21.0014 14.7848 20.9999 15.0327Z" stroke="#6D6D6D" stroke-width="1.5" stroke-linecap="round" stroke-linejoin="round"/>
</g>
</svg>
