<svg width="4" height="16" viewBox="0 0 4 16" fill="none" xmlns="http://www.w3.org/2000/svg">
<path id="Vector" d="M2 2.55556C1.73478 2.55556 1.48043 2.47361 1.29289 2.32775C1.10536 2.18189 1 1.98406 1 1.77778C1 1.5715 1.10536 1.37367 1.29289 1.22781C1.48043 1.08194 1.73478 1 2 1C2.26522 1 2.51957 1.08194 2.70711 1.22781C2.89464 1.37367 3 1.5715 3 1.77778C3 1.98406 2.89464 2.18189 2.70711 2.32775C2.51957 2.47361 2.26522 2.55556 2 2.55556ZM2 8.77778C1.73478 8.77778 1.48043 8.69583 1.29289 8.54997C1.10536 8.40411 1 8.20628 1 8C1 7.79372 1.10536 7.59589 1.29289 7.45003C1.48043 7.30417 1.73478 7.22222 2 7.22222C2.26522 7.22222 2.51957 7.30417 2.70711 7.45003C2.89464 7.59589 3 7.79372 3 8C3 8.20628 2.89464 8.40411 2.70711 8.54997C2.51957 8.69583 2.26522 8.77778 2 8.77778ZM2 15C1.73478 15 1.48043 14.9181 1.29289 14.7722C1.10536 14.6263 1 14.4285 1 14.2222C1 14.0159 1.10536 13.8181 1.29289 13.6722C1.48043 13.5264 1.73478 13.4444 2 13.4444C2.26522 13.4444 2.51957 13.5264 2.70711 13.6722C2.89464 13.8181 3 14.0159 3 14.2222C3 14.4285 2.89464 14.6263 2.70711 14.7722C2.51957 14.9181 2.26522 15 2 15Z" stroke="#A5A5A5" stroke-width="1.5" stroke-linecap="round" stroke-linejoin="round"/>
</svg>
