<svg width="30" height="24" viewBox="0 0 30 24" fill="none" xmlns="http://www.w3.org/2000/svg">
<path d="M5 15.5C5 16.4283 5.36875 17.3185 6.02513 17.9749C6.6815 18.6313 7.57174 19 8.5 19H11.5C12.4283 19 13.3185 18.6313 13.9749 17.9749C14.6313 17.3185 15 16.4283 15 15.5C15 14.5717 14.6313 13.6815 13.9749 13.0251C13.3185 12.3687 12.4283 12 11.5 12H8.5C7.57174 12 6.6815 11.6313 6.02513 10.9749C5.36875 10.3185 5 9.42826 5 8.5C5 7.57174 5.36875 6.6815 6.02513 6.02513C6.6815 5.36875 7.57174 5 8.5 5H11.5C12.4283 5 13.3185 5.36875 13.9749 6.02513C14.6313 6.6815 15 7.57174 15 8.5" stroke="#005DAC" stroke-width="2" stroke-linecap="round" stroke-linejoin="round"/>
<path d="M10 3V7M10 21V17" stroke="#005DAC" stroke-width="2" stroke-linecap="round" stroke-linejoin="round"/>
</svg>
