<svg width="40" height="40" viewBox="0 0 40 40" fill="none" xmlns="http://www.w3.org/2000/svg">
<g id="Frame">
<path id="Vector" d="M14.167 11.6667C15.5477 11.6667 16.667 10.5475 16.667 9.16675C16.667 7.78603 15.5477 6.66675 14.167 6.66675C12.7863 6.66675 11.667 7.78603 11.667 9.16675C11.667 10.5475 12.7863 11.6667 14.167 11.6667ZM14.167 22.5001C15.5477 22.5001 16.667 21.3807 16.667 20.0001C16.667 18.6194 15.5477 17.5001 14.167 17.5001C12.7863 17.5001 11.667 18.6194 11.667 20.0001C11.667 21.3807 12.7863 22.5001 14.167 22.5001ZM16.667 30.8334C16.667 32.2141 15.5477 33.3334 14.167 33.3334C12.7863 33.3334 11.667 32.2141 11.667 30.8334C11.667 29.4527 12.7863 28.3334 14.167 28.3334C15.5477 28.3334 16.667 29.4527 16.667 30.8334ZM25.8337 11.6667C27.2143 11.6667 28.3337 10.5475 28.3337 9.16675C28.3337 7.78603 27.2143 6.66675 25.8337 6.66675C24.453 6.66675 23.3337 7.78603 23.3337 9.16675C23.3337 10.5475 24.453 11.6667 25.8337 11.6667ZM28.3337 20.0001C28.3337 21.3807 27.2143 22.5001 25.8337 22.5001C24.453 22.5001 23.3337 21.3807 23.3337 20.0001C23.3337 18.6194 24.453 17.5001 25.8337 17.5001C27.2143 17.5001 28.3337 18.6194 28.3337 20.0001ZM25.8337 33.3334C27.2143 33.3334 28.3337 32.2141 28.3337 30.8334C28.3337 29.4527 27.2143 28.3334 25.8337 28.3334C24.453 28.3334 23.3337 29.4527 23.3337 30.8334C23.3337 32.2141 24.453 33.3334 25.8337 33.3334Z" fill="#A5A5A5"/>
</g>
</svg>
