<svg width="20" height="20" viewBox="0 0 20 20" fill="none" xmlns="http://www.w3.org/2000/svg">
<path d="M2.5 4.16666H5.83333M17.5 4.16666H9.16667M2.5 9.99999H12.5M17.5 9.99999H15.8333M2.5 15.8333H4.16667M17.5 15.8333H7.5" stroke="#FFFFFD" stroke-linecap="round" stroke-linejoin="round"/>
<path d="M7.49992 5.83333C8.42039 5.83333 9.16659 5.08714 9.16659 4.16667C9.16659 3.24619 8.42039 2.5 7.49992 2.5C6.57944 2.5 5.83325 3.24619 5.83325 4.16667C5.83325 5.08714 6.57944 5.83333 7.49992 5.83333Z" stroke="#FFFFFD" stroke-linecap="round" stroke-linejoin="round"/>
<path d="M14.1667 11.6667C15.0871 11.6667 15.8333 10.9205 15.8333 10C15.8333 9.07954 15.0871 8.33334 14.1667 8.33334C13.2462 8.33334 12.5 9.07954 12.5 10C12.5 10.9205 13.2462 11.6667 14.1667 11.6667Z" stroke="#FFFFFD" stroke-linecap="round" stroke-linejoin="round"/>
<path d="M5.83341 17.5C6.75389 17.5 7.50008 16.7538 7.50008 15.8333C7.50008 14.9128 6.75389 14.1667 5.83341 14.1667C4.91294 14.1667 4.16675 14.9128 4.16675 15.8333C4.16675 16.7538 4.91294 17.5 5.83341 17.5Z" stroke="#FFFFFD" stroke-linecap="round" stroke-linejoin="round"/>
</svg>
