<svg width="177" height="117" viewBox="0 0 177 117" fill="none" xmlns="http://www.w3.org/2000/svg">
<path d="M159.367 31.8552H158.565C158.477 31.8554 158.392 31.8252 158.326 31.7705C158.261 31.7157 158.22 31.6403 158.211 31.559C157.512 23.7164 150.821 17.9376 142.344 17.1165C142.112 17.0926 141.997 16.9745 142 16.7621L142.035 15.286C142.038 15.1035 142.139 14.9973 142.34 14.9674C151.559 13.6334 156.906 8.734 158.378 0.269201C158.411 0.0897356 158.526 0 158.723 0H160.405C160.615 0 160.728 0.0942217 160.745 0.282661C161.399 8.20607 168.09 14.0701 176.665 14.8912C176.888 14.9121 177 15.0243 177 15.2277V16.798C177 16.9715 176.907 17.0672 176.72 17.0851C168.129 17.8793 161.532 23.7119 160.74 31.5949C160.723 31.7505 160.637 31.8596 160.479 31.9225C160.194 32.0391 159.866 32.0241 159.495 31.8776C159.456 31.8628 159.413 31.8551 159.367 31.8552Z" fill="#ED4545"/>
<path d="M7.90902 19.5041V109.643C7.90902 109.71 7.93871 109.774 7.99155 109.822C8.04439 109.869 8.11605 109.896 8.19078 109.896L154.72 109.82C154.795 109.82 154.867 109.794 154.919 109.746C154.972 109.699 155.002 109.634 155.002 109.567L155.012 40.0382C155.012 39.971 155.042 39.9066 155.094 39.8591C155.147 39.8115 155.219 39.7848 155.294 39.7848H162.718C162.793 39.7848 162.865 39.8115 162.917 39.8591C162.97 39.9066 163 39.971 163 40.0382V116.747C163 116.814 162.97 116.878 162.917 116.926C162.865 116.973 162.793 117 162.718 117L0.281759 116.987C0.244758 116.987 0.208118 116.98 0.173933 116.967C0.139749 116.955 0.108688 116.936 0.0825239 116.912C0.0563602 116.889 0.0356072 116.861 0.0214475 116.83C0.00728776 116.799 0 116.767 0 116.733V12.2534C0 12.1862 0.0296839 12.1217 0.0825239 12.0742C0.135364 12.0267 0.207032 12 0.281759 12H131.824C131.898 12 131.97 12.0267 132.023 12.0742C132.076 12.1217 132.105 12.1862 132.105 12.2534V18.9084C132.105 18.9417 132.098 18.9746 132.084 19.0054C132.07 19.0361 132.049 19.0641 132.023 19.0876C131.997 19.1111 131.966 19.1298 131.931 19.1425C131.897 19.1553 131.861 19.1618 131.824 19.1618L8.19078 19.2507C8.11605 19.2507 8.04439 19.2774 7.99155 19.3249C7.93871 19.3725 7.90902 19.4369 7.90902 19.5041Z" fill="#ED4545"/>
<path d="M78.876 83.2068C59.497 96.8338 31.0409 84.9489 31.0113 62.8812C30.9981 55.3234 30.9965 47.77 31.0063 40.2211C31.0063 40.1624 31.0324 40.1062 31.0787 40.0648C31.125 40.0233 31.1878 40 31.2533 40H38.7698C38.8405 40 38.9084 40.0252 38.9584 40.0699C39.0084 40.1147 39.0365 40.1754 39.0365 40.2388C39.0332 46.8798 39.0266 53.5386 39.0167 60.215C39.0134 63.4516 39.2439 65.8746 39.7081 67.484C41.5453 73.8951 46.6666 78.7809 53.6893 80.912C60.814 83.0727 67.6309 81.9467 74.1399 77.534C74.2815 77.4397 74.3967 77.4603 74.4856 77.5959C75.7302 79.506 77.2035 81.2599 78.9057 82.8575C79.0406 82.9813 79.0308 83.0977 78.876 83.2068Z" fill="#ED4545"/>
<path d="M123.665 47.1736H110.295C110.13 47.1736 110.047 47.1 110.047 46.9528V40.3311C110.047 40.1104 110.171 40 110.419 40H131.722C131.784 40 131.843 40.0219 131.887 40.0608C131.93 40.0997 131.955 40.1525 131.955 40.2075C131.988 47.4237 132.003 54.6738 132 61.9578C131.996 70.3365 128.589 77.2055 121.777 82.5647C105.246 95.5786 78.4968 87.8312 73.7248 68.5089C73.2623 66.6401 73.0261 63.7133 73.0162 59.7284C72.9964 53.2214 72.9947 46.7189 73.0113 40.2207C73.0126 40.1618 73.0398 40.1056 73.087 40.0644C73.1343 40.0231 73.1978 40 73.264 40H80.6821C80.8473 40 80.9299 40.0736 80.9299 40.2207C80.9448 47.9903 80.6028 55.9187 81.0736 63.6573C81.9507 77.9692 99.2101 86.5068 113.278 79.2096C118.481 76.5109 121.813 72.4981 123.273 67.1713C123.722 65.5203 123.944 63.1394 123.937 60.0286C123.927 55.8172 123.922 51.6072 123.922 47.3987C123.922 47.2486 123.836 47.1736 123.665 47.1736Z" fill="#ED4545"/>
<path d="M62.4054 96.0541C63.2333 96.0851 63.9253 95.6631 63.9511 95.1114C63.977 94.5598 63.3268 94.0873 62.4989 94.0563C61.6711 94.0252 60.9791 94.4472 60.9533 94.9989C60.9274 95.5506 61.5776 96.023 62.4054 96.0541Z" fill="#ED4545"/>
<path d="M97.6606 94.0042L95.3394 94.0005C95.152 94.0002 94.9998 94.126 94.9995 94.2814L94.9791 104.719C94.9788 104.874 95.1305 105 95.318 105.001L97.6391 105.004C97.8266 105.004 97.9788 104.879 97.9791 104.723L97.9994 94.286C97.9998 94.1307 97.848 94.0045 97.6606 94.0042Z" fill="#ED4545"/>
<path d="M52.7493 104.285C50.9849 105.373 47.8562 105.297 46.6612 103.517C45.5892 101.916 46.138 96.3017 46.1585 94.2608C46.1585 94.114 46.244 94.0406 46.415 94.0406H48.323C48.4939 94.0406 48.5794 94.117 48.5794 94.2698C48.5828 96.5564 48.588 98.8385 48.5948 101.116C48.5999 103.584 51.5337 104.146 51.7645 101.548C51.9731 99.1892 51.9782 96.7722 51.7799 94.2968C51.7778 94.2669 51.7826 94.237 51.7939 94.2087C51.8052 94.1804 51.8229 94.1545 51.8458 94.1323C51.8688 94.1101 51.8965 94.0921 51.9275 94.0795C51.9584 94.0668 51.992 94.0597 52.0261 94.0586L54.1239 94.0001C54.2606 93.9971 54.329 94.0541 54.329 94.1709C54.3495 96.6793 54.3991 99.1817 54.4778 101.678C54.5291 103.283 56.1857 103.867 57.309 102.478C57.4184 102.343 57.4748 102.193 57.4782 102.029L57.5962 94.3058C57.5996 94.129 57.7022 94.0406 57.9039 94.0406H59.7299C59.9043 94.0406 59.9915 94.1155 59.9915 94.2653C60.0085 96.7767 60 99.285 59.9658 101.79C59.9196 105.193 55.8831 105.638 53.2058 104.267C53.0519 104.186 52.8998 104.192 52.7493 104.285Z" fill="#ED4545"/>
<path d="M70.5664 103.179C70.6837 103.09 70.7703 102.974 70.8164 102.845C70.8625 102.716 70.8663 102.578 70.8274 102.447C70.7884 102.316 70.7083 102.197 70.596 102.103C70.4837 102.01 70.3437 101.945 70.1917 101.917C57.8674 99.6235 71.6904 93.9469 72.7082 99.0943C72.7148 99.1277 72.713 99.1621 72.7028 99.1949C72.6926 99.2277 72.6744 99.2581 72.6493 99.2842C72.6243 99.3102 72.593 99.3312 72.5577 99.3456C72.5224 99.36 72.4839 99.3676 72.4449 99.3677H71.0777C70.9918 99.3676 70.9073 99.3495 70.8315 99.315C70.7556 99.2804 70.6907 99.2304 70.6423 99.1692C69.7984 98.1048 68.7672 97.9548 67.5486 98.7193C67.3967 98.8134 67.3562 98.9355 67.4271 99.0854C67.8625 100.016 71.0626 100.55 72.0803 100.929C72.2319 100.986 72.3608 101.083 72.4499 101.207C75.1386 105.031 67.2093 106.465 65.0777 103.143C65.031 103.07 65.0046 102.988 65.0006 102.904C64.9965 102.82 65.0149 102.737 65.0542 102.66C65.0936 102.584 65.1529 102.517 65.2273 102.464C65.3017 102.412 65.3892 102.376 65.4827 102.358C66.4954 102.167 67.206 102.448 67.6144 103.201C67.6735 103.307 67.769 103.394 67.8878 103.452C68.8431 103.905 69.736 103.814 70.5664 103.179Z" fill="#ED4545"/>
<path d="M75.652 102.174C76.2966 103.879 79.0376 103.888 79.7714 102.152C79.8412 101.99 79.9775 101.91 80.1801 101.913L81.6581 101.931C81.8992 101.934 81.99 102.034 81.9306 102.231C80.2378 107.639 70.3377 104.352 73.6867 98.9878C75.3899 96.2572 81.2807 96.2483 81.9935 99.5313C82.0112 99.6181 81.9925 99.7073 81.9408 99.7832C81.8891 99.8591 81.8075 99.917 81.7105 99.9467L75.8878 101.772C75.7943 101.8 75.7174 101.857 75.6734 101.932C75.6294 102.007 75.6217 102.094 75.652 102.174ZM75.7987 100.472L79.3835 99.4253C79.3908 99.4233 79.3975 99.4201 79.4033 99.4159C79.4091 99.4117 79.4138 99.4066 79.4172 99.4008C79.4206 99.3951 79.4226 99.3888 79.4231 99.3824C79.4237 99.376 79.4227 99.3695 79.4202 99.3634V99.359C79.2848 99.032 78.9704 98.7726 78.546 98.6376C78.1216 98.5025 77.6217 98.503 77.1561 98.6388L76.9779 98.6874C76.7468 98.7547 76.531 98.8533 76.343 98.9776C76.1549 99.102 75.9982 99.2497 75.8819 99.4122C75.7656 99.5747 75.6919 99.7488 75.665 99.9247C75.6382 100.101 75.6587 100.275 75.7254 100.437V100.442C75.7277 100.448 75.7315 100.453 75.7365 100.458C75.7415 100.463 75.7476 100.467 75.7544 100.47C75.7612 100.473 75.7686 100.475 75.7763 100.475C75.7839 100.475 75.7915 100.475 75.7987 100.472Z" fill="#ED4545"/>
<path d="M85.6572 97.5565C86.3045 97.1572 87.0215 96.9728 87.8081 97.0032C87.9722 97.0093 88.0311 97.0901 87.9846 97.2456C87.678 98.2789 86.1264 98.919 85.411 99.4082C85.3491 99.4507 85.2984 99.5068 85.2629 99.572C85.2273 99.6371 85.2081 99.7095 85.2066 99.7831L85.0673 104.68C85.0611 104.893 84.9496 105 84.7328 105H83.2416C83.0805 105 83 104.921 83 104.762L83.0093 97.5153C83.0093 97.3904 83.0666 97.305 83.1812 97.2593C83.9183 96.9667 84.5981 97.0596 85.2206 97.5382C85.3599 97.6449 85.5055 97.651 85.6572 97.5565Z" fill="#ED4545"/>
<path d="M101.662 97.6864C103.799 96.3928 106.951 96.8361 106.951 99.8027C106.951 101.442 106.967 103.083 107 104.726C107.003 104.909 106.907 105 106.711 105H105.01C104.846 105 104.765 104.922 104.765 104.767C104.755 103.194 105.083 100.653 104.436 99.2359C104.374 99.1049 104.273 99.0074 104.132 98.9434C100.466 97.2932 101.127 103.204 101.299 104.68C101.325 104.893 101.222 105 100.99 105H99.2451C99.0817 105 99 104.924 99 104.771V97.5812C99 97.4471 99.0637 97.3496 99.1912 97.2887C99.9951 96.9139 100.683 97.0281 101.255 97.6315C101.376 97.7595 101.511 97.7778 101.662 97.6864Z" fill="#ED4545"/>
<path d="M112.373 104.815C106.511 103.294 108.645 95.2129 116.032 97.3607C116.882 97.6083 117.497 98.2855 117.878 99.3922C117.923 99.5324 117.865 99.6249 117.705 99.6696C116.509 100.007 115.639 99.7546 115.094 98.9134C115.003 98.7756 114.855 98.6731 114.679 98.627C111.607 97.8261 110.642 100.963 112.027 102.636C113.133 103.974 115.13 103.634 115.723 102.09C115.75 102.022 115.802 101.962 115.872 101.921C115.942 101.88 116.026 101.859 116.111 101.862L117.306 101.889C117.436 101.892 117.561 101.925 117.671 101.984C117.78 102.044 117.868 102.127 117.925 102.226C117.983 102.325 118.008 102.435 117.998 102.546C117.988 102.656 117.942 102.761 117.867 102.851C116.294 104.704 114.463 105.358 112.373 104.815Z" fill="#ED4545"/>
<path d="M62.8019 97H61.1981C61.0887 97 61 97.0875 61 97.1954V104.805C61 104.913 61.0887 105 61.1981 105H62.8019C62.9113 105 63 104.913 63 104.805V97.1954C63 97.0875 62.9113 97 62.8019 97Z" fill="#ED4545"/>
</svg>
